<svg width="281.0365534487047" height="54.593758436601526" viewBox="0 0 281.0365534487047 54.593758436601526" class="css-1j8o68f"><defs id="SvgjsDefs2534"></defs><g id="SvgjsG2535" featurekey="symbolFeature-0" transform="matrix(0.9412205815315247,0,0,0.9412205815315247,-2.287833975112387,-18.872035320203626)" fill="#b469ff"><g xmlns="http://www.w3.org/2000/svg"><path d="M97.4,62c-0.5-2.2-1.2-5-1.8-6.4c-0.1-0.3-0.2-0.6-0.4-1c-1-2.7-2.9-7.7-7.5-7.7H70.6c1.7,1.6,2.7,3.6,3.4,5.3h3.5     l0.6,12.3c0.1,1.3,1.1,2.4,2.3,2.5c1.2,0.1,2.4,0.2,3.7,0.2c1.2,0,2.4-0.1,3.7-0.2c1.3-0.1,2.3-1.3,2.3-2.6l0.2-7.9     c0.1,0.4,0.3,0.8,0.4,1.1c0.4,1,1,3.3,1.5,5.5c0.4,1.6,2.1,2.5,3.6,1.9l0.1,0C97.1,64.5,97.7,63.2,97.4,62z"></path><circle cx="84.2" cy="39.1" r="6.3"></circle><path d="M52.3,46.8H25c1.7,1.6,2.7,3.7,3.4,5.3h3l1.2,12.2c0,1.3,1,2.4,2.3,2.6c1.2,0.1,2.4,0.2,3.6,0.2c1.2,0,2.5-0.1,3.7-0.2     c1.3-0.1,2.3-1.3,2.3-2.6l1.1-12.2h3.2C49.5,50.5,50.6,48.4,52.3,46.8z"></path><circle cx="38.6" cy="39.1" r="6.3"></circle><path d="M27.3,55.6c-0.1-0.3-0.2-0.6-0.4-1c-1-2.7-2.9-7.7-7.5-7.7h-7.2c-4.7,0-6.5,5-7.5,7.7c-0.1,0.4-0.3,0.7-0.4,1     c-0.6,1.4-1.3,4.2-1.8,6.4c-0.3,1.3,0.4,2.5,1.6,3c0,0,0,0,0.1,0c1.5,0.6,3.2-0.3,3.6-1.9c0.5-2.2,1.1-4.6,1.5-5.5     c0.1-0.3,0.3-0.7,0.4-1.1l0.2,7.9c0,1.3,1,2.4,2.3,2.6c1.2,0.1,2.4,0.2,3.6,0.2c1.2,0,2.5-0.1,3.6-0.2c1.3-0.1,2.3-1.3,2.3-2.6     l0.2-7.9c0.1,0.4,0.3,0.8,0.4,1.1c0.4,1,1,3.3,1.5,5.5c0.4,1.6,2.1,2.5,3.6,1.9c0,0,0,0,0.1,0c1.2-0.5,1.9-1.8,1.6-3     C28.6,59.7,27.9,57,27.3,55.6z"></path><circle cx="15.8" cy="39.1" r="6.3"></circle><path d="M72.9,55.6c-0.1-0.3-0.2-0.6-0.4-1c-1-2.7-2.9-7.7-7.5-7.7h-0.2H58h-0.2c-4.7,0-6.5,5-7.5,7.7c-0.1,0.4-0.3,0.7-0.4,1     c-0.6,1.4-1.3,4.2-1.8,6.4c-0.3,1.3,0.4,2.5,1.6,3c0,0,0,0,0.1,0c1.5,0.6,3.2-0.3,3.6-1.9c0.5-2.2,1.1-4.6,1.5-5.5     c0.1-0.3,0.3-0.7,0.4-1.1l0.2,7.9c0,1.3,1,2.4,2.3,2.6c1.2,0.1,2.4,0.2,3.6,0.2c1.2,0,2.5-0.1,3.6-0.2c1.3-0.1,2.3-1.3,2.3-2.6     l0.2-7.9c0.1,0.4,0.3,0.8,0.4,1.1c0.4,1,1,3.3,1.5,5.5c0.4,1.6,2.1,2.5,3.6,1.9c0,0,0,0,0.1,0c1.2-0.5,1.9-1.8,1.6-3     C74.2,59.7,73.5,57,72.9,55.6z"></path><circle cx="61.4" cy="39.1" r="6.3"></circle></g></g><g id="SvgjsG2536" featurekey="nameFeature-0" transform="matrix(1.4680430889129639,0,0,1.4680430889129639,106.93534341937348,-2.064217144653559)" fill="#b469ff"><path d="M17.344 32.6562 c-0.78125 -0.15625 -1.5105 -0.3907 -2.1876 -0.7032 c-1.4584 -0.67711 -2.7344 -1.6146 -3.8281 -2.8125 c-1.0416 -1.0938 -1.875 -2.4479 -2.5 -4.0625 c-0.57289 -1.6146 -0.85938 -3.2552 -0.85938 -4.9219 l0 -0.15625 l0 -0.23438 c0 -1.7188 0.28648 -3.3854 0.85938 -5 c0.67711 -1.6666 1.5105 -2.9948 2.5001 -3.9844 c1.0416 -1.1979 2.2916 -2.1094 3.75 -2.7344 c0.88539 -0.41664 1.6406 -0.67703 2.2656 -0.78117 l0 -5.8594 c-1.8229 0.26039 -3.4375 0.70313 -4.8438 1.3281 c-2.2916 0.98961 -4.2448 2.3177 -5.8594 3.9844 s-2.8906 3.6458 -3.8281 5.9374 s-1.4063 4.6875 -1.4063 7.1875 l0 0.15625 l0 0.23438 c0 2.5521 0.46875 4.948 1.4063 7.1876 c0.83336 2.2396 2.0834 4.1927 3.75 5.8594 c1.6666 1.7188 3.6198 3.0469 5.8594 3.9844 c1.4063 0.625 3.0469 1.0677 4.9219 1.3281 l0 -5.9375 z M38.594 20 l0.000076294 -0.23438 c0 -2.5521 -0.46875 -4.948 -1.4063 -7.1876 c-0.9375 -2.2916 -2.2135 -4.2708 -3.8281 -5.9374 c-1.5625 -1.6666 -3.4896 -2.9688 -5.7813 -3.9063 c-1.3021 -0.625 -2.8906 -1.0677 -4.7656 -1.3281 l0 5.9375 l0.9375 0.3125 c0.46875 0.15625 0.83336 0.28648 1.0938 0.39063 c1.4584 0.67711 2.7344 1.6146 3.8281 2.8125 c1.0416 1.0938 1.875 2.4479 2.5 4.0625 c0.57289 1.6146 0.85938 3.2552 0.85938 4.9219 l0 0.15625 l0 0.23438 c0 1.7188 -0.28648 3.3854 -0.85938 5 c-0.67711 1.6666 -1.5105 2.9948 -2.5001 3.9844 c-1.0416 1.1979 -2.2916 2.1094 -3.75 2.7344 c-0.67711 0.3125 -1.3802 0.54688 -2.1094 0.70313 l0 5.9375 c1.5625 -0.20836 3.125 -0.65109 4.6875 -1.3282 c2.1354 -0.88539 4.0885 -2.2135 5.8594 -3.9844 c1.7188 -1.8229 2.9948 -3.802 3.8281 -5.9374 c0.9375 -2.2916 1.4063 -4.6875 1.4063 -7.1875 l0 -0.15625 z M73.438 8.75 c-0.67711 -1.4584 -1.6147 -2.7605 -2.8126 -3.9063 c-1.25 -1.0938 -2.7344 -1.9531 -4.4531 -2.5781 c-1.875 -0.57289 -3.8541 -0.85938 -5.9375 -0.85938 l-14.609 0 l0 5.8594 l14.063 0 c2.3438 0 4.2969 0.57289 5.8594 1.7188 c1.4584 1.0938 2.1875 2.7604 2.1875 5 c0 2.0313 -0.70313 3.6719 -2.1094 4.9219 c-1.5104 1.1979 -3.4895 1.7969 -5.9374 1.7969 l-14.063 0 l0 17.891 l6.4844 0 l0 -11.953 l7.3438 0 c1.9271 0 3.8802 -0.28648 5.8594 -0.85938 c1.8229 -0.57289 3.3854 -1.3802 4.6875 -2.4218 c1.3541 -1.0416 2.4219 -2.3698 3.2031 -3.9844 c0.78125 -1.5625 1.1719 -3.3854 1.1719 -5.4688 c0 -1.9791 -0.3125 -3.6979 -0.9375 -5.1563 z M97.344 32.6562 c-0.78125 -0.15625 -1.5105 -0.3907 -2.1876 -0.7032 c-1.4584 -0.67711 -2.7344 -1.6146 -3.8281 -2.8125 c-1.0416 -1.0938 -1.875 -2.4479 -2.5 -4.0625 c-0.57289 -1.6146 -0.85938 -3.2552 -0.85938 -4.9219 l0 -0.15625 l0 -0.23438 c0 -1.7188 0.28648 -3.3854 0.85938 -5 c0.67711 -1.6666 1.5105 -2.9948 2.5001 -3.9844 c1.0416 -1.1979 2.2916 -2.1094 3.75 -2.7344 c0.88539 -0.41664 1.6406 -0.67703 2.2656 -0.78117 l0 -5.8594 c-1.8229 0.26039 -3.4375 0.70313 -4.8438 1.3281 c-2.2916 0.98961 -4.2448 2.3177 -5.8594 3.9844 s-2.8906 3.6458 -3.8281 5.9374 s-1.4063 4.6875 -1.4063 7.1875 l0 0.15625 l0 0.23438 c0 2.5521 0.46875 4.948 1.4063 7.1876 c0.83336 2.2396 2.0834 4.1927 3.75 5.8594 c1.6666 1.7188 3.6198 3.0469 5.8594 3.9844 c1.4063 0.625 3.0469 1.0677 4.9219 1.3281 l0 -5.9375 z M118.594 20 l0.000076294 -0.23438 c0 -2.5521 -0.46875 -4.948 -1.4063 -7.1876 c-0.9375 -2.2916 -2.2135 -4.2708 -3.8281 -5.9374 c-1.5625 -1.6666 -3.4896 -2.9688 -5.7813 -3.9063 c-1.3021 -0.625 -2.8906 -1.0677 -4.7656 -1.3281 l0 5.9375 l0.9375 0.3125 c0.46875 0.15625 0.83336 0.28648 1.0938 0.39063 c1.4584 0.67711 2.7344 1.6146 3.8281 2.8125 c1.0416 1.0938 1.875 2.4479 2.5 4.0625 c0.57289 1.6146 0.85938 3.2552 0.85938 4.9219 l0 0.15625 l0 0.23438 c0 1.7188 -0.28648 3.3854 -0.85938 5 c-0.67711 1.6666 -1.5105 2.9948 -2.5001 3.9844 c-1.0416 1.1979 -2.2916 2.1094 -3.75 2.7344 c-0.67711 0.3125 -1.3802 0.54688 -2.1094 0.70313 l0 5.9375 c1.5625 -0.20836 3.125 -0.65109 4.6875 -1.3282 c2.1354 -0.88539 4.0885 -2.2135 5.8594 -3.9844 c1.7188 -1.8229 2.9948 -3.802 3.8281 -5.9374 c0.9375 -2.2916 1.4063 -4.6875 1.4063 -7.1875 l0 -0.15625 z"></path></g></svg>