<svg><path fill="#b469ff" d="M132.397 45.876a14.35 14.35 0 0 1-3.212-1.032 17.546 17.546 0 0 1-5.62-4.13c-1.528-1.604-2.753-3.592-3.67-5.962a21.464 21.464 0 0 1-1.263-7.226v-.574c0-2.522.422-4.97 1.263-7.34.994-2.446 2.217-4.396 3.67-5.85a15.072 15.072 0 0 1 5.505-4.013c1.3-.612 2.41-.994 3.327-1.148v-8.6c-2.677.38-5.047 1.031-7.111 1.949-3.364 1.453-6.232 3.403-8.603 5.85s-4.243 5.35-5.618 8.716-2.066 6.88-2.066 10.55v.574c0 3.747.69 7.264 2.066 10.553a23.71 23.71 0 0 0 5.505 8.602 25.64 25.64 0 0 0 8.602 5.849c2.063.918 4.472 1.566 7.225 1.95v-8.718zm31.196-18.58v-.343c0-3.746-.689-7.264-2.065-10.552-1.377-3.365-3.25-6.269-5.62-8.716-2.294-2.447-5.123-4.36-8.487-5.735-1.912-.918-4.243-1.567-6.996-1.95v8.717l1.376.458c.688.23 1.224.422 1.606.573a17.546 17.546 0 0 1 5.62 4.13c1.53 1.605 2.752 3.593 3.67 5.964a21.457 21.457 0 0 1 1.262 7.226v.572c0 2.525-.421 4.971-1.262 7.34-.994 2.448-2.217 4.397-3.67 5.85a15.072 15.072 0 0 1-5.506 4.014c-.993.46-2.025.803-3.097 1.032v8.718c2.294-.307 4.589-.956 6.882-1.95 3.136-1.3 6.003-3.25 8.603-5.85 2.522-2.676 4.395-5.582 5.62-8.716a27.604 27.604 0 0 0 2.064-10.552v-.23zm51.152-16.515a18.897 18.897 0 0 0-4.13-5.734c-1.835-1.606-4.013-2.867-6.537-3.784C201.326.42 198.42 0 195.362 0h-21.448v8.603h20.648c3.441 0 6.308.841 8.603 2.522 2.14 1.606 3.21 4.052 3.21 7.34 0 2.983-1.031 5.39-3.097 7.226-2.217 1.758-5.123 2.638-8.716 2.638h-20.646v26.265h9.519V37.046h10.78c2.83 0 5.697-.42 8.604-1.262 2.674-.84 4.969-2.026 6.88-3.555 1.988-1.53 3.556-3.479 4.702-5.848 1.147-2.295 1.72-4.971 1.72-8.03 0-2.904-.459-5.428-1.376-7.568zm35.095 35.095a14.35 14.35 0 0 1-3.212-1.032 17.546 17.546 0 0 1-5.62-4.13c-1.528-1.604-2.752-3.592-3.67-5.962a21.464 21.464 0 0 1-1.262-7.226v-.574c0-2.522.42-4.97 1.262-7.34.994-2.446 2.217-4.396 3.67-5.85a15.072 15.072 0 0 1 5.505-4.013c1.301-.612 2.41-.994 3.327-1.148v-8.6c-2.676.38-5.047 1.031-7.111 1.949-3.364 1.453-6.232 3.403-8.603 5.85s-4.243 5.35-5.618 8.716-2.066 6.88-2.066 10.55v.574c0 3.747.69 7.264 2.066 10.553a23.71 23.71 0 0 0 5.505 8.602 25.64 25.64 0 0 0 8.603 5.849c2.062.918 4.471 1.566 7.224 1.95v-8.718zm31.196-18.58v-.343c0-3.746-.689-7.264-2.064-10.552-1.377-3.365-3.25-6.269-5.62-8.716-2.295-2.447-5.123-4.36-8.488-5.735-1.912-.918-4.243-1.567-6.995-1.95v8.717l1.375.458c.689.23 1.224.422 1.606.573a17.546 17.546 0 0 1 5.62 4.13c1.53 1.605 2.752 3.593 3.67 5.964a21.457 21.457 0 0 1 1.262 7.226v.572c0 2.525-.42 4.971-1.262 7.34-.994 2.448-2.217 4.397-3.67 5.85a15.072 15.072 0 0 1-5.505 4.014c-.994.46-2.026.803-3.098 1.032v8.718c2.295-.307 4.59-.956 6.882-1.95 3.136-1.3 6.003-3.25 8.603-5.85 2.522-2.676 4.395-5.582 5.62-8.716a27.604 27.604 0 0 0 2.064-10.552v-.23z"/></svg>